# xmcd
#
# Track frame offsets:
#	150
#	11281
#	34475
#	55067
#	73532
#	100225
#	122687
#	150422
#	175910
#	204461
#
# Disc length: 2933 seconds
#
# Revision: 1
# Processed by: cddbd v1.5.2PL0 Copyright (c) Steve Scherf et al.
# Submitted via: audiograbber 1.83.01
#
DISCID=7b0b730a
DTITLE=Schroeder-Headz - Synesthesia
DYEAR=2014
DGENRE=Jazz
TTITLE0=Memento Mori
TTITLE1=Blue Bird
TTITLE2=3 On 3
TTITLE3=Follow Me
TTITLE4=Tokyo Tribal Sacrifice
TTITLE5=Far Eastern Tale
TTITLE6=Petal
TTITLE7=Midnight Sun
TTITLE8=Wildthing's Arm
TTITLE9=The Award For The Most Stupid Question 
EXTD=YEAR: 2014
EXTT0=
EXTT1=
EXTT2=
EXTT3=
EXTT4=
EXTT5=
EXTT6=
EXTT7=
EXTT8=
EXTT9=
PLAYORDER=
